<svg width="80" height="80" viewBox="0 0 80 80" fill="none" xmlns="http://www.w3.org/2000/svg">
<path d="M63.9259 66H16.0741C14.9285 66 14 65.0715 14 63.9259V16.0741C14 14.9285 14.9285 14 16.0741 14H63.9259C65.0715 14 66 14.9285 66 16.0741V63.9259C66 65.0715 65.0715 66 63.9259 66ZM28.7778 61.8519H39.2593V52.7037H28.7778V61.8519ZM18.1482 61.8519H27.2963V52.7037H18.1482V61.8519ZM18.1482 51.2222H27.2963V40.7407H18.1482V51.2222ZM61.8519 18.1481H52.7037V27.2963H61.8519V18.1481ZM61.8519 52.7037H61.2961C61.3209 52.4995 61.3377 52.3015 61.3377 52.1111C61.3377 51.8179 61.3095 51.5202 61.2561 51.2222H61.8519V40.7407H54.5198L54.232 40.1186L53.8344 39.2593H61.8519V28.7778H52.7037V36.8156L52.5668 36.5197L51.2222 33.6138V28.7778H49.9516C50.0236 28.4344 50.0618 28.0873 50.0618 27.7407C50.0618 27.5997 50.0523 27.4508 50.0382 27.2963H51.2222V18.1481H40.7407V24.7384C40.2482 25.422 39.9139 26.2306 39.806 27.1174C39.7787 27.3417 39.7655 27.5455 39.7655 27.7407C39.7655 27.999 39.7863 28.259 39.8275 28.5189L39.6397 28.7275L39.2593 29.1501V28.7778H29.2127C29.2827 28.4382 29.321 28.0921 29.321 27.7407C29.321 27.5919 29.3122 27.4439 29.2992 27.2963H39.2593V18.1481H28.7778V25.4541C28.7101 25.3185 28.6386 25.1846 28.5587 25.0546C28.2192 24.5017 27.7894 24.0304 27.2963 23.6511V18.1481H18.1482V27.2963H19.0484C19.0342 27.4508 19.0247 27.5997 19.0247 27.7407C19.0247 28.088 19.0625 28.4351 19.1336 28.7778H18.1482V39.2593H27.2963V36.9381L27.6162 37.3422L28.7778 38.8097V39.2593H28.789C28.7531 39.5053 28.7284 39.7528 28.7284 40C28.7284 40.2481 28.7528 40.4955 28.7884 40.7407H28.7778V51.2222H39.2593V40.7407H38.9648C39.0004 40.4955 39.0247 40.2481 39.0247 40C39.0247 39.758 39.0042 39.5098 38.9663 39.2593H39.2593V38.8925L40.3603 37.6695L40.7407 37.2469V39.2593H46.6519L46.9397 39.8814L47.3373 40.7407H40.7407V51.2222H51.1222C51.0702 51.5154 51.0414 51.8123 51.0414 52.1111C51.0414 52.3095 51.0569 52.507 51.0799 52.7037H40.7407V61.8519H51.2222V53.4447C51.2454 53.5306 51.2674 53.6168 51.295 53.7019C51.5763 54.5655 52.0699 55.3113 52.7037 55.896V61.8519H61.8519V52.7037Z" fill="#2C2C2C"/>
<path d="M56.1897 55.7778C54.563 55.7778 53.1822 54.7123 52.7039 53.2432C52.5876 52.8863 52.523 52.5064 52.523 52.1112C52.523 51.7167 52.5872 51.3375 52.7039 50.9817C52.8258 50.6094 53.0052 50.2628 53.2322 49.9528L52.7039 48.811L51.2224 45.6091L48.9698 40.7408L48.2843 39.2593L44.6451 31.3938C44.4562 31.3801 44.2714 31.3526 44.0915 31.3111L40.7409 35.0328L39.2594 36.6783L37.341 38.8092C37.3913 38.9551 37.4303 39.106 37.4627 39.2593C37.5132 39.4988 37.5434 39.7456 37.5434 40.0001C37.5434 40.2538 37.5174 40.5015 37.4681 40.7408C37.1245 42.4087 35.6449 43.6667 33.8767 43.6667C32.1086 43.6667 30.6289 42.4087 30.2854 40.7408C30.2361 40.5015 30.2101 40.2538 30.2101 40.0001C30.2101 39.7462 30.2367 39.4987 30.2862 39.2593C30.3341 39.0275 30.4036 38.8034 30.493 38.5896L28.7779 36.4228L27.2964 34.5512L24.7665 31.355C24.5728 31.3867 24.3755 31.4075 24.173 31.4075C22.5115 31.4075 21.1067 30.2958 20.658 28.7778C20.5607 28.4486 20.5063 28.1011 20.5063 27.7408C20.5063 27.5901 20.5183 27.4423 20.536 27.2963C20.7565 25.4838 22.3019 24.0741 24.173 24.0741C25.4943 24.0741 26.651 24.7789 27.2964 25.8299C27.6387 26.3872 27.8397 27.0402 27.8397 27.7408C27.8397 28.2405 27.7386 28.7168 27.5568 29.1513L28.7779 30.694L33.2833 36.3859C33.4769 36.3542 33.6742 36.3334 33.8767 36.3334C34.1598 36.3334 34.4342 36.3687 34.699 36.4297L39.2594 31.3643L40.7409 29.7188L41.4495 28.9317C41.4321 28.8812 41.4184 28.8292 41.4031 28.7778C41.3048 28.4484 41.2471 28.1018 41.2471 27.7408C41.2471 27.5901 41.259 27.4423 41.2768 27.2963C41.4972 25.4838 43.0426 24.0741 44.9138 24.0741C46.7849 24.0741 48.3303 25.4838 48.5507 27.2963C48.5685 27.4423 48.5804 27.5901 48.5804 27.7408C48.5804 28.1016 48.5248 28.4488 48.4266 28.7778C48.305 29.185 48.1167 29.5638 47.8713 29.8992L51.2224 37.1418L52.8876 40.7408L56.4583 48.4581C58.0532 48.5746 59.365 49.7145 59.743 51.2223C59.8145 51.5073 59.8563 51.8041 59.8563 52.1112C59.8563 52.3134 59.8356 52.5104 59.804 52.7038C59.5193 54.4441 58.0093 55.7778 56.1897 55.7778ZM24.173 26.1482C23.2948 26.1482 22.5804 26.8626 22.5804 27.7408C22.5804 28.619 23.2948 29.3334 24.173 29.3334C25.0512 29.3334 25.7656 28.619 25.7656 27.7408C25.7656 26.8626 25.0512 26.1482 24.173 26.1482ZM33.8767 38.4075C32.9985 38.4075 32.2841 39.1219 32.2841 40.0001C32.2841 40.8783 32.9985 41.5926 33.8767 41.5926C34.7549 41.5926 35.4693 40.8782 35.4693 40.0001C35.4693 39.1219 34.7549 38.4075 33.8767 38.4075ZM44.9138 26.1482C44.0356 26.1482 43.3212 26.8626 43.3212 27.7408C43.3212 28.619 44.0356 29.3334 44.9138 29.3334C45.7919 29.3334 46.5064 28.619 46.5064 27.7408C46.5064 26.8626 45.7919 26.1482 44.9138 26.1482ZM56.1897 50.5186C55.3115 50.5186 54.5971 51.233 54.5971 52.1112C54.5971 52.9894 55.3115 53.7038 56.1897 53.7038C57.0679 53.7038 57.7823 52.9894 57.7823 52.1112C57.7823 51.233 57.0679 50.5186 56.1897 50.5186Z" fill="#6CB4D4"/>
</svg>
